<svg id="visual" viewBox="0 0 900 600" width="900" height="600" xmlns="http://www.w3.org/2000/svg" xmlns:xlink="http://www.w3.org/1999/xlink" version="1.1"><rect x="0" y="0" width="900" height="600" fill="#3a0ca3"></rect><path d="M0 275L25 267.7C50 260.3 100 245.7 150 237C200 228.3 250 225.7 300 230.3C350 235 400 247 450 246.7C500 246.3 550 233.7 600 222.8C650 212 700 203 750 195.3C800 187.7 850 181.3 875 178.2L900 175L900 601L875 601C850 601 800 601 750 601C700 601 650 601 600 601C550 601 500 601 450 601C400 601 350 601 300 601C250 601 200 601 150 601C100 601 50 601 25 601L0 601Z" fill="#4cc9f0"></path><path d="M0 294L25 295.8C50 297.7 100 301.3 150 309C200 316.7 250 328.3 300 332.5C350 336.7 400 333.3 450 321.3C500 309.3 550 288.7 600 284C650 279.3 700 290.7 750 288.3C800 286 850 270 875 262L900 254L900 601L875 601C850 601 800 601 750 601C700 601 650 601 600 601C550 601 500 601 450 601C400 601 350 601 300 601C250 601 200 601 150 601C100 601 50 601 25 601L0 601Z" fill="#76d2f3"></path><path d="M0 302L25 312.5C50 323 100 344 150 350.7C200 357.3 250 349.7 300 349C350 348.3 400 354.7 450 345C500 335.3 550 309.7 600 302.5C650 295.3 700 306.7 750 320.7C800 334.7 850 351.3 875 359.7L900 368L900 601L875 601C850 601 800 601 750 601C700 601 650 601 600 601C550 601 500 601 450 601C400 601 350 601 300 601C250 601 200 601 150 601C100 601 50 601 25 601L0 601Z" fill="#97dbf5"></path><path d="M0 420L25 408.8C50 397.7 100 375.3 150 367.7C200 360 250 367 300 369.7C350 372.3 400 370.7 450 374.3C500 378 550 387 600 390.7C650 394.3 700 392.7 750 390.2C800 387.7 850 384.3 875 382.7L900 381L900 601L875 601C850 601 800 601 750 601C700 601 650 601 600 601C550 601 500 601 450 601C400 601 350 601 300 601C250 601 200 601 150 601C100 601 50 601 25 601L0 601Z" fill="#b3e4f8"></path><path d="M0 452L25 446.7C50 441.3 100 430.7 150 434.7C200 438.7 250 457.3 300 467.3C350 477.3 400 478.7 450 465.5C500 452.3 550 424.7 600 412.3C650 400 700 403 750 407C800 411 850 416 875 418.5L900 421L900 601L875 601C850 601 800 601 750 601C700 601 650 601 600 601C550 601 500 601 450 601C400 601 350 601 300 601C250 601 200 601 150 601C100 601 50 601 25 601L0 601Z" fill="#ceedfa"></path><path d="M0 512L25 501.8C50 491.7 100 471.3 150 470.2C200 469 250 487 300 492.2C350 497.3 400 489.7 450 488C500 486.3 550 490.7 600 488.5C650 486.3 700 477.7 750 480.3C800 483 850 497 875 504L900 511L900 601L875 601C850 601 800 601 750 601C700 601 650 601 600 601C550 601 500 601 450 601C400 601 350 601 300 601C250 601 200 601 150 601C100 601 50 601 25 601L0 601Z" fill="#e7f6fd"></path><path d="M0 574L25 573.5C50 573 100 572 150 563.5C200 555 250 539 300 537.3C350 535.7 400 548.3 450 552.3C500 556.3 550 551.7 600 542.7C650 533.7 700 520.3 750 522.2C800 524 850 541 875 549.5L900 558L900 601L875 601C850 601 800 601 750 601C700 601 650 601 600 601C550 601 500 601 450 601C400 601 350 601 300 601C250 601 200 601 150 601C100 601 50 601 25 601L0 601Z" fill="#ffffff"></path></svg>