<svg id="visual" viewBox="0 0 900 600" width="900" height="600" xmlns="http://www.w3.org/2000/svg" xmlns:xlink="http://www.w3.org/1999/xlink" version="1.1"><rect x="0" y="0" width="900" height="600" fill="#f72585"></rect><defs><linearGradient id="grad1_0" x1="33.3%" y1="0%" x2="100%" y2="100%"><stop offset="20%" stop-color="#f72585" stop-opacity="1"></stop><stop offset="80%" stop-color="#f72585" stop-opacity="1"></stop></linearGradient></defs><defs><linearGradient id="grad2_0" x1="0%" y1="0%" x2="66.7%" y2="100%"><stop offset="20%" stop-color="#f72585" stop-opacity="1"></stop><stop offset="80%" stop-color="#f72585" stop-opacity="1"></stop></linearGradient></defs><g transform="translate(900, 0)"><path d="M0 486.7C-49.8 447.5 -99.5 408.2 -161.9 390.8C-224.2 373.4 -299.1 377.8 -344.2 344.2C-389.2 310.6 -404.4 239 -423.1 175.3C-441.9 111.6 -464.3 55.8 -486.7 0L0 0Z" fill="#4cc9f0"></path></g><g transform="translate(0, 600)"><path d="M0 -486.7C43.6 -436.3 87.2 -385.9 153.8 -371.4C220.5 -356.9 310.3 -378.4 344.2 -344.2C378.1 -310 356 -220.1 370.5 -153.5C384.9 -86.8 435.8 -43.4 486.7 0L0 0Z" fill="#4cc9f0"></path></g></svg>