<svg id="visual" viewBox="0 0 900 600" width="900" height="600" xmlns="http://www.w3.org/2000/svg" xmlns:xlink="http://www.w3.org/1999/xlink" version="1.1"><path d="M0 19L13.7 19C27.3 19 54.7 19 82 25C109.3 31 136.7 43 163.8 48C191 53 218 51 245.2 47C272.3 43 299.7 37 327 37C354.3 37 381.7 43 409 46C436.3 49 463.7 49 491 47C518.3 45 545.7 41 573 37C600.3 33 627.7 29 654.8 29C682 29 709 33 736.2 33C763.3 33 790.7 29 818 28C845.3 27 872.7 29 886.3 30L900 31L900 0L886.3 0C872.7 0 845.3 0 818 0C790.7 0 763.3 0 736.2 0C709 0 682 0 654.8 0C627.7 0 600.3 0 573 0C545.7 0 518.3 0 491 0C463.7 0 436.3 0 409 0C381.7 0 354.3 0 327 0C299.7 0 272.3 0 245.2 0C218 0 191 0 163.8 0C136.7 0 109.3 0 82 0C54.7 0 27.3 0 13.7 0L0 0Z" fill="#4361ee"></path><path d="M0 85L13.7 87C27.3 89 54.7 93 82 93C109.3 93 136.7 89 163.8 86C191 83 218 81 245.2 76C272.3 71 299.7 63 327 62C354.3 61 381.7 67 409 71C436.3 75 463.7 77 491 80C518.3 83 545.7 87 573 83C600.3 79 627.7 67 654.8 70C682 73 709 91 736.2 99C763.3 107 790.7 105 818 96C845.3 87 872.7 71 886.3 63L900 55L900 29L886.3 28C872.7 27 845.3 25 818 26C790.7 27 763.3 31 736.2 31C709 31 682 27 654.8 27C627.7 27 600.3 31 573 35C545.7 39 518.3 43 491 45C463.7 47 436.3 47 409 44C381.7 41 354.3 35 327 35C299.7 35 272.3 41 245.2 45C218 49 191 51 163.8 46C136.7 41 109.3 29 82 23C54.7 17 27.3 17 13.7 17L0 17Z" fill="#4258e5"></path><path d="M0 133L13.7 136C27.3 139 54.7 145 82 145C109.3 145 136.7 139 163.8 130C191 121 218 109 245.2 101C272.3 93 299.7 89 327 91C354.3 93 381.7 101 409 103C436.3 105 463.7 101 491 105C518.3 109 545.7 121 573 117C600.3 113 627.7 93 654.8 97C682 101 709 129 736.2 138C763.3 147 790.7 137 818 126C845.3 115 872.7 103 886.3 97L900 91L900 53L886.3 61C872.7 69 845.3 85 818 94C790.7 103 763.3 105 736.2 97C709 89 682 71 654.8 68C627.7 65 600.3 77 573 81C545.7 85 518.3 81 491 78C463.7 75 436.3 73 409 69C381.7 65 354.3 59 327 60C299.7 61 272.3 69 245.2 74C218 79 191 81 163.8 84C136.7 87 109.3 91 82 91C54.7 91 27.3 87 13.7 85L0 83Z" fill="#414fdc"></path><path d="M0 157L13.7 159C27.3 161 54.7 165 82 165C109.3 165 136.7 161 163.8 157C191 153 218 149 245.2 143C272.3 137 299.7 129 327 130C354.3 131 381.7 141 409 141C436.3 141 463.7 131 491 136C518.3 141 545.7 161 573 156C600.3 151 627.7 121 654.8 121C682 121 709 151 736.2 162C763.3 173 790.7 165 818 157C845.3 149 872.7 141 886.3 137L900 133L900 89L886.3 95C872.7 101 845.3 113 818 124C790.7 135 763.3 145 736.2 136C709 127 682 99 654.8 95C627.7 91 600.3 111 573 115C545.7 119 518.3 107 491 103C463.7 99 436.3 103 409 101C381.7 99 354.3 91 327 89C299.7 87 272.3 91 245.2 99C218 107 191 119 163.8 128C136.7 137 109.3 143 82 143C54.7 143 27.3 137 13.7 134L0 131Z" fill="#4045d2"></path><path d="M0 235L13.7 242C27.3 249 54.7 263 82 270C109.3 277 136.7 277 163.8 267C191 257 218 237 245.2 223C272.3 209 299.7 201 327 200C354.3 199 381.7 205 409 206C436.3 207 463.7 203 491 215C518.3 227 545.7 255 573 250C600.3 245 627.7 207 654.8 202C682 197 709 225 736.2 236C763.3 247 790.7 241 818 241C845.3 241 872.7 247 886.3 250L900 253L900 131L886.3 135C872.7 139 845.3 147 818 155C790.7 163 763.3 171 736.2 160C709 149 682 119 654.8 119C627.7 119 600.3 149 573 154C545.7 159 518.3 139 491 134C463.7 129 436.3 139 409 139C381.7 139 354.3 129 327 128C299.7 127 272.3 135 245.2 141C218 147 191 151 163.8 155C136.7 159 109.3 163 82 163C54.7 163 27.3 159 13.7 157L0 155Z" fill="#3f3cc9"></path><path d="M0 271L13.7 284C27.3 297 54.7 323 82 337C109.3 351 136.7 353 163.8 346C191 339 218 323 245.2 311C272.3 299 299.7 291 327 283C354.3 275 381.7 267 409 264C436.3 261 463.7 263 491 282C518.3 301 545.7 337 573 334C600.3 331 627.7 289 654.8 278C682 267 709 287 736.2 298C763.3 309 790.7 311 818 312C845.3 313 872.7 313 886.3 313L900 313L900 251L886.3 248C872.7 245 845.3 239 818 239C790.7 239 763.3 245 736.2 234C709 223 682 195 654.8 200C627.7 205 600.3 243 573 248C545.7 253 518.3 225 491 213C463.7 201 436.3 205 409 204C381.7 203 354.3 197 327 198C299.7 199 272.3 207 245.2 221C218 235 191 255 163.8 265C136.7 275 109.3 275 82 268C54.7 261 27.3 247 13.7 240L0 233Z" fill="#3e32c0"></path><path d="M0 325L13.7 338C27.3 351 54.7 377 82 387C109.3 397 136.7 391 163.8 385C191 379 218 373 245.2 364C272.3 355 299.7 343 327 333C354.3 323 381.7 315 409 313C436.3 311 463.7 315 491 329C518.3 343 545.7 367 573 367C600.3 367 627.7 343 654.8 340C682 337 709 355 736.2 366C763.3 377 790.7 381 818 381C845.3 381 872.7 377 886.3 375L900 373L900 311L886.3 311C872.7 311 845.3 311 818 310C790.7 309 763.3 307 736.2 296C709 285 682 265 654.8 276C627.7 287 600.3 329 573 332C545.7 335 518.3 299 491 280C463.7 261 436.3 259 409 262C381.7 265 354.3 273 327 281C299.7 289 272.3 297 245.2 309C218 321 191 337 163.8 344C136.7 351 109.3 349 82 335C54.7 321 27.3 295 13.7 282L0 269Z" fill="#3d27b6"></path><path d="M0 481L13.7 490C27.3 499 54.7 517 82 522C109.3 527 136.7 519 163.8 507C191 495 218 479 245.2 480C272.3 481 299.7 499 327 488C354.3 477 381.7 437 409 437C436.3 437 463.7 477 491 495C518.3 513 545.7 509 573 500C600.3 491 627.7 477 654.8 466C682 455 709 447 736.2 449C763.3 451 790.7 463 818 471C845.3 479 872.7 483 886.3 485L900 487L900 371L886.3 373C872.7 375 845.3 379 818 379C790.7 379 763.3 375 736.2 364C709 353 682 335 654.8 338C627.7 341 600.3 365 573 365C545.7 365 518.3 341 491 327C463.7 313 436.3 309 409 311C381.7 313 354.3 321 327 331C299.7 341 272.3 353 245.2 362C218 371 191 377 163.8 383C136.7 389 109.3 395 82 385C54.7 375 27.3 349 13.7 336L0 323Z" fill="#3b1cad"></path><path d="M0 601L13.7 601C27.3 601 54.7 601 82 601C109.3 601 136.7 601 163.8 601C191 601 218 601 245.2 601C272.3 601 299.7 601 327 601C354.3 601 381.7 601 409 601C436.3 601 463.7 601 491 601C518.3 601 545.7 601 573 601C600.3 601 627.7 601 654.8 601C682 601 709 601 736.2 601C763.3 601 790.7 601 818 601C845.3 601 872.7 601 886.3 601L900 601L900 485L886.3 483C872.7 481 845.3 477 818 469C790.7 461 763.3 449 736.2 447C709 445 682 453 654.8 464C627.7 475 600.3 489 573 498C545.7 507 518.3 511 491 493C463.7 475 436.3 435 409 435C381.7 435 354.3 475 327 486C299.7 497 272.3 479 245.2 478C218 477 191 493 163.8 505C136.7 517 109.3 525 82 520C54.7 515 27.3 497 13.7 488L0 479Z" fill="#3a0ca3"></path></svg>