<?xml version="1.0" standalone="no"?>
<svg xmlns:xlink="http://www.w3.org/1999/xlink" id="wave" style="transform:rotate(180deg); transition: 0.3s" viewBox="0 0 1440 460" version="1.1" xmlns="http://www.w3.org/2000/svg"><defs><linearGradient id="sw-gradient-0" x1="0" x2="0" y1="1" y2="0"><stop stop-color="rgba(76, 201, 240, 1)" offset="0%"/><stop stop-color="rgba(247, 37, 133, 1)" offset="100%"/></linearGradient></defs><path style="transform:translate(0, 0px); opacity:1" fill="url(#sw-gradient-0)" d="M0,368L13.3,329.7C26.7,291,53,215,80,214.7C106.7,215,133,291,160,306.7C186.7,322,213,276,240,276C266.7,276,293,322,320,283.7C346.7,245,373,123,400,84.3C426.7,46,453,92,480,92C506.7,92,533,46,560,76.7C586.7,107,613,215,640,268.3C666.7,322,693,322,720,337.3C746.7,353,773,383,800,375.7C826.7,368,853,322,880,291.3C906.7,261,933,245,960,214.7C986.7,184,1013,138,1040,138C1066.7,138,1093,184,1120,184C1146.7,184,1173,138,1200,168.7C1226.7,199,1253,307,1280,352.7C1306.7,399,1333,383,1360,368C1386.7,353,1413,337,1440,291.3C1466.7,245,1493,169,1520,184C1546.7,199,1573,307,1600,329.7C1626.7,353,1653,291,1680,276C1706.7,261,1733,291,1760,283.7C1786.7,276,1813,230,1840,207C1866.7,184,1893,184,1907,184L1920,184L1920,460L1906.7,460C1893.3,460,1867,460,1840,460C1813.3,460,1787,460,1760,460C1733.3,460,1707,460,1680,460C1653.3,460,1627,460,1600,460C1573.3,460,1547,460,1520,460C1493.3,460,1467,460,1440,460C1413.3,460,1387,460,1360,460C1333.3,460,1307,460,1280,460C1253.3,460,1227,460,1200,460C1173.3,460,1147,460,1120,460C1093.3,460,1067,460,1040,460C1013.3,460,987,460,960,460C933.3,460,907,460,880,460C853.3,460,827,460,800,460C773.3,460,747,460,720,460C693.3,460,667,460,640,460C613.3,460,587,460,560,460C533.3,460,507,460,480,460C453.3,460,427,460,400,460C373.3,460,347,460,320,460C293.3,460,267,460,240,460C213.3,460,187,460,160,460C133.3,460,107,460,80,460C53.3,460,27,460,13,460L0,460Z"/></svg>